<svg xmlns="http://www.w3.org/2000/svg" viewBox="0 0 32 32"><path fill="currentColor" fill-rule="evenodd" transform="translate(2.00 2.63) scale(0.0843)" d="M 161.7 1.6 C 158.2 3.5,157.8 4.7,152.9 25 C 134.2 103.2,101.8 131.8,13.8 148.1 C 6.2 149.5,1.8 152.6,0.6 157.2 C -1.4 165.3,6.2 169.8,26.7 173 C 99.1 184.1,140.4 222.9,152.1 291 C 155.5 310.7,158.9 317,166.1 317 C 173.7 317,176.3 311,184.5 275.5 C 196.3 223.9,220 199.4,276.3 180.7 C 288.8 176.5,294.9 175,317.3 170.4 C 330.7 167.7,336.1 160.4,329.9 153.5 C 326.1 149.4,324.8 149,305.3 145.1 C 258.4 135.7,224.7 116.7,207.4 90 C 196.6 73.2,189.1 53.5,175.8 7.2 C 174.1 1.3,167.3 -1.4,161.7 1.6 M 160 79.8 C 142.1 117.3,118.9 139.3,80.5 155.2 L 71.5 158.9 75.5 160.5 C 117 177.6,142.6 200.1,159.8 234.8 C 162.9 240.9,165.7 246,166 246 C 166.3 246,168.5 241.8,170.8 236.7 C 181 214.5,197.9 194.8,218.5 181.1 C 228.4 174.4,256.1 160,258.9 160 C 262 160,258.8 158,247.3 152.5 C 212.5 136.1,190.4 114,173.9 79.4 C 170.7 72.7,167.8 67,167.3 66.7 C 166.9 66.4,163.6 72.3,160 79.8"/></svg>
